<svg xmlns="http://www.w3.org/2000/svg" xmlns:xlink="http://www.w3.org/1999/xlink" width="500" zoomAndPan="magnify" viewBox="0 0 375 374.999991" height="500" preserveAspectRatio="xMidYMid meet" version="1.0"><defs><g/><clipPath id="9dec43a244"><rect x="0" width="201" y="0" height="60"/></clipPath></defs><rect x="-37.5" width="450" fill="#ffffff" y="-37.499999" height="449.999989" fill-opacity="1"/><rect x="-37.5" width="450" fill="#ffffff" y="-37.499999" height="449.999989" fill-opacity="1"/><path fill="#2db9f0" d="M 91.71875 161.9375 C 121.5625 201.492188 157.894531 177.433594 190.644531 159.640625 C 219.6875 143.867188 248.605469 142.824219 277.304688 167.449219 C 251.808594 134.167969 220.402344 130.722656 184.71875 148.871094 C 155.503906 163.726562 123.953125 190.574219 91.71875 161.9375 " fill-opacity="1" fill-rule="evenodd"/><path fill="#68cff7" d="M 101.863281 179.394531 C 131.308594 218.949219 167.160156 194.890625 199.476562 177.097656 C 228.132812 161.324219 256.667969 160.28125 284.992188 184.90625 C 259.832031 151.625 228.839844 148.179688 193.628906 166.324219 C 164.800781 181.183594 133.667969 208.03125 101.863281 179.394531 " fill-opacity="1" fill-rule="evenodd"/><path fill="#68cff7" d="M 135.863281 162.585938 C 120.734375 152.273438 112.058594 137.976562 111.976562 118.378906 C 111.925781 107.199219 95.910156 110.929688 96.652344 120.191406 C 98.378906 141.699219 112.441406 155.183594 135.863281 162.585938 " fill-opacity="1" fill-rule="evenodd"/><path fill="#68cff7" d="M 134.699219 165.148438 C 121.667969 165.429688 110.710938 160.742188 102.523438 149.445312 C 97.847656 143 90.136719 151.765625 94.414062 156.816406 C 104.347656 168.542969 118.082031 170.539062 134.699219 165.148438 " fill-opacity="1" fill-rule="evenodd"/><path fill="#68cff7" d="M 145.1875 147.421875 C 141.15625 147.421875 137.890625 150.679688 137.890625 154.699219 C 137.890625 158.714844 141.15625 161.972656 145.1875 161.972656 C 149.214844 161.972656 152.484375 158.714844 152.484375 154.699219 C 152.484375 150.679688 149.214844 147.421875 145.1875 147.421875 " fill-opacity="1" fill-rule="evenodd"/><path fill="#68cff7" d="M 161.085938 141.359375 C 158.878906 141.359375 157.089844 143.144531 157.089844 145.34375 C 157.089844 147.542969 158.878906 149.324219 161.085938 149.324219 C 163.292969 149.324219 165.082031 147.542969 165.082031 145.34375 C 165.082031 143.144531 163.292969 141.359375 161.085938 141.359375 " fill-opacity="1" fill-rule="evenodd"/><path fill="#68cff7" d="M 146.03125 129.875 C 142.976562 129.875 140.5 132.34375 140.5 135.390625 C 140.5 138.433594 142.976562 140.902344 146.03125 140.902344 C 149.085938 140.902344 151.5625 138.433594 151.5625 135.390625 C 151.5625 132.34375 149.085938 129.875 146.03125 129.875 " fill-opacity="1" fill-rule="evenodd"/><g transform="matrix(1, 0, 0, 1, 87, 198)"><g clip-path="url(#9dec43a244)"><g fill="#2db9f0" fill-opacity="0.4"><g transform="translate(0.298879, 42.693664)"><g><path d="M 7.796875 0 L 3.921875 0 C 3.285156 0 2.96875 -0.316406 2.96875 -0.953125 L 2.96875 -28.359375 C 2.96875 -28.992188 3.285156 -29.3125 3.921875 -29.3125 L 15.046875 -29.3125 C 17.421875 -29.3125 19.257812 -28.664062 20.5625 -27.375 C 21.863281 -26.082031 22.515625 -24.253906 22.515625 -21.890625 L 22.515625 -17.515625 C 22.515625 -15.140625 21.863281 -13.304688 20.5625 -12.015625 C 19.257812 -10.722656 17.421875 -10.078125 15.046875 -10.078125 L 9.296875 -10.078125 C 8.929688 -10.078125 8.75 -9.910156 8.75 -9.578125 L 8.75 -0.953125 C 8.75 -0.316406 8.429688 0 7.796875 0 Z M 9.25 -15.140625 L 14.09375 -15.140625 C 15.0625 -15.140625 15.742188 -15.34375 16.140625 -15.75 C 16.535156 -16.164062 16.734375 -16.84375 16.734375 -17.78125 L 16.734375 -21.609375 C 16.734375 -22.585938 16.535156 -23.28125 16.140625 -23.6875 C 15.742188 -24.09375 15.0625 -24.296875 14.09375 -24.296875 L 9.25 -24.296875 C 8.914062 -24.296875 8.75 -24.128906 8.75 -23.796875 L 8.75 -15.640625 C 8.75 -15.304688 8.914062 -15.140625 9.25 -15.140625 Z M 9.25 -15.140625 "/></g></g></g><g fill="#2db9f0" fill-opacity="0.4"><g transform="translate(24.457215, 42.693664)"><g><path d="M 6.015625 0 L 1.640625 0 C 1.097656 0 0.914062 -0.316406 1.09375 -0.953125 L 8.296875 -28.359375 C 8.515625 -28.992188 8.972656 -29.3125 9.671875 -29.3125 L 15.734375 -29.3125 C 16.492188 -29.3125 16.945312 -28.992188 17.09375 -28.359375 L 24.296875 -0.953125 C 24.484375 -0.316406 24.300781 0 23.75 0 L 19.375 0 C 19.039062 0 18.8125 -0.0664062 18.6875 -0.203125 C 18.570312 -0.335938 18.484375 -0.585938 18.421875 -0.953125 L 17.140625 -5.96875 L 8.25 -5.96875 L 6.96875 -0.953125 C 6.914062 -0.585938 6.816406 -0.335938 6.671875 -0.203125 C 6.535156 -0.0664062 6.316406 0 6.015625 0 Z M 12.625 -23.796875 L 9.34375 -10.625 L 16.09375 -10.625 L 12.8125 -23.796875 Z M 12.625 -23.796875 "/></g></g></g><g fill="#2db9f0" fill-opacity="0.4"><g transform="translate(49.846271, 42.693664)"><g><path d="M 8.984375 -28.359375 L 8.984375 -0.953125 C 8.984375 -0.316406 8.664062 0 8.03125 0 L 4.15625 0 C 3.507812 0 3.1875 -0.316406 3.1875 -0.953125 L 3.1875 -28.359375 C 3.1875 -28.992188 3.507812 -29.3125 4.15625 -29.3125 L 8.03125 -29.3125 C 8.664062 -29.3125 8.984375 -28.992188 8.984375 -28.359375 Z M 8.984375 -28.359375 "/></g></g></g><g fill="#2db9f0" fill-opacity="0.4"><g transform="translate(62.0166, 42.693664)"><g><path d="M 18.828125 0 L 3.921875 0 C 3.285156 0 2.96875 -0.316406 2.96875 -0.953125 L 2.96875 -28.359375 C 2.96875 -28.992188 3.285156 -29.3125 3.921875 -29.3125 L 18.828125 -29.3125 C 19.429688 -29.3125 19.734375 -28.992188 19.734375 -28.359375 L 19.734375 -25.265625 C 19.734375 -24.617188 19.429688 -24.296875 18.828125 -24.296875 L 9.296875 -24.296875 C 8.929688 -24.296875 8.75 -24.128906 8.75 -23.796875 L 8.75 -17.875 C 8.75 -17.539062 8.929688 -17.375 9.296875 -17.375 L 17.09375 -17.375 C 17.738281 -17.375 18.0625 -17.050781 18.0625 -16.40625 L 18.0625 -13.3125 C 18.0625 -12.675781 17.738281 -12.359375 17.09375 -12.359375 L 9.296875 -12.359375 C 8.929688 -12.359375 8.75 -12.191406 8.75 -11.859375 L 8.75 -5.515625 C 8.75 -5.179688 8.929688 -5.015625 9.296875 -5.015625 L 18.828125 -5.015625 C 19.429688 -5.015625 19.734375 -4.695312 19.734375 -4.0625 L 19.734375 -0.953125 C 19.734375 -0.316406 19.429688 0 18.828125 0 Z M 18.828125 0 "/></g></g></g><g fill="#2db9f0" fill-opacity="0.4"><g transform="translate(83.850278, 42.693664)"><g/></g></g><g fill="#2db9f0" fill-opacity="0.4"><g transform="translate(93.878268, 42.693664)"><g><path d="M 9.25 -5.015625 L 14.21875 -5.015625 C 15.195312 -5.015625 15.890625 -5.21875 16.296875 -5.625 C 16.710938 -6.039062 16.921875 -6.734375 16.921875 -7.703125 L 16.921875 -21.609375 C 16.921875 -22.585938 16.710938 -23.28125 16.296875 -23.6875 C 15.890625 -24.09375 15.195312 -24.296875 14.21875 -24.296875 L 9.25 -24.296875 C 8.914062 -24.296875 8.75 -24.128906 8.75 -23.796875 L 8.75 -5.515625 C 8.75 -5.179688 8.914062 -5.015625 9.25 -5.015625 Z M 2.96875 -0.953125 L 2.96875 -28.359375 C 2.96875 -28.992188 3.285156 -29.3125 3.921875 -29.3125 L 15.1875 -29.3125 C 17.550781 -29.3125 19.394531 -28.664062 20.71875 -27.375 C 22.039062 -26.082031 22.703125 -24.253906 22.703125 -21.890625 L 22.703125 -7.4375 C 22.703125 -5.0625 22.039062 -3.226562 20.71875 -1.9375 C 19.394531 -0.644531 17.550781 0 15.1875 0 L 3.921875 0 C 3.285156 0 2.96875 -0.316406 2.96875 -0.953125 Z M 2.96875 -0.953125 "/></g></g></g><g fill="#2db9f0" fill-opacity="0.4"><g transform="translate(119.084989, 42.693664)"><g><path d="M 13.71875 0 L 9.84375 0 C 9.207031 0 8.890625 -0.316406 8.890625 -0.953125 L 8.890625 -10.71875 L 0.546875 -28.3125 C 0.421875 -28.582031 0.425781 -28.816406 0.5625 -29.015625 C 0.707031 -29.210938 0.914062 -29.3125 1.1875 -29.3125 L 6.015625 -29.3125 C 6.503906 -29.3125 6.867188 -28.992188 7.109375 -28.359375 L 11.671875 -17.28125 L 11.984375 -17.28125 L 16.453125 -28.359375 C 16.671875 -28.992188 17.035156 -29.3125 17.546875 -29.3125 L 22.390625 -29.3125 C 22.691406 -29.3125 22.910156 -29.21875 23.046875 -29.03125 C 23.179688 -28.851562 23.175781 -28.613281 23.03125 -28.3125 L 14.6875 -10.71875 L 14.6875 -0.953125 C 14.6875 -0.316406 14.363281 0 13.71875 0 Z M 13.71875 0 "/></g></g></g><g fill="#2db9f0" fill-opacity="0.4"><g transform="translate(142.650764, 42.693664)"><g><path d="M 6.015625 0 L 1.640625 0 C 1.097656 0 0.914062 -0.316406 1.09375 -0.953125 L 8.296875 -28.359375 C 8.515625 -28.992188 8.972656 -29.3125 9.671875 -29.3125 L 15.734375 -29.3125 C 16.492188 -29.3125 16.945312 -28.992188 17.09375 -28.359375 L 24.296875 -0.953125 C 24.484375 -0.316406 24.300781 0 23.75 0 L 19.375 0 C 19.039062 0 18.8125 -0.0664062 18.6875 -0.203125 C 18.570312 -0.335938 18.484375 -0.585938 18.421875 -0.953125 L 17.140625 -5.96875 L 8.25 -5.96875 L 6.96875 -0.953125 C 6.914062 -0.585938 6.816406 -0.335938 6.671875 -0.203125 C 6.535156 -0.0664062 6.316406 0 6.015625 0 Z M 12.625 -23.796875 L 9.34375 -10.625 L 16.09375 -10.625 L 12.8125 -23.796875 Z M 12.625 -23.796875 "/></g></g></g><g fill="#2db9f0" fill-opacity="0.4"><g transform="translate(168.03982, 42.693664)"><g><path d="M 18.921875 0 L 3.921875 0 C 3.285156 0 2.96875 -0.316406 2.96875 -0.953125 L 2.96875 -28.359375 C 2.96875 -28.992188 3.285156 -29.3125 3.921875 -29.3125 L 7.796875 -29.3125 C 8.429688 -29.3125 8.75 -28.992188 8.75 -28.359375 L 8.75 -5.5625 C 8.75 -5.226562 8.929688 -5.0625 9.296875 -5.0625 L 18.921875 -5.0625 C 19.523438 -5.0625 19.828125 -4.726562 19.828125 -4.0625 L 19.828125 -0.953125 C 19.828125 -0.316406 19.523438 0 18.921875 0 Z M 18.921875 0 "/></g></g></g><g fill="#2db9f0" fill-opacity="0.4"><g transform="translate(188.506042, 42.693664)"><g><path d="M 8.984375 -28.359375 L 8.984375 -0.953125 C 8.984375 -0.316406 8.664062 0 8.03125 0 L 4.15625 0 C 3.507812 0 3.1875 -0.316406 3.1875 -0.953125 L 3.1875 -28.359375 C 3.1875 -28.992188 3.507812 -29.3125 4.15625 -29.3125 L 8.03125 -29.3125 C 8.664062 -29.3125 8.984375 -28.992188 8.984375 -28.359375 Z M 8.984375 -28.359375 "/></g></g></g><g fill="#2db9f0" fill-opacity="1"><g transform="translate(0.298879, 42.693664)"><g><path d="M 7.796875 0 L 3.921875 0 C 3.285156 0 2.96875 -0.316406 2.96875 -0.953125 L 2.96875 -28.359375 C 2.96875 -28.992188 3.285156 -29.3125 3.921875 -29.3125 L 15.046875 -29.3125 C 17.421875 -29.3125 19.257812 -28.664062 20.5625 -27.375 C 21.863281 -26.082031 22.515625 -24.253906 22.515625 -21.890625 L 22.515625 -17.515625 C 22.515625 -15.140625 21.863281 -13.304688 20.5625 -12.015625 C 19.257812 -10.722656 17.421875 -10.078125 15.046875 -10.078125 L 9.296875 -10.078125 C 8.929688 -10.078125 8.75 -9.910156 8.75 -9.578125 L 8.75 -0.953125 C 8.75 -0.316406 8.429688 0 7.796875 0 Z M 9.25 -15.140625 L 14.09375 -15.140625 C 15.0625 -15.140625 15.742188 -15.34375 16.140625 -15.75 C 16.535156 -16.164062 16.734375 -16.84375 16.734375 -17.78125 L 16.734375 -21.609375 C 16.734375 -22.585938 16.535156 -23.28125 16.140625 -23.6875 C 15.742188 -24.09375 15.0625 -24.296875 14.09375 -24.296875 L 9.25 -24.296875 C 8.914062 -24.296875 8.75 -24.128906 8.75 -23.796875 L 8.75 -15.640625 C 8.75 -15.304688 8.914062 -15.140625 9.25 -15.140625 Z M 9.25 -15.140625 "/></g></g></g><g fill="#2db9f0" fill-opacity="1"><g transform="translate(24.457215, 42.693664)"><g><path d="M 6.015625 0 L 1.640625 0 C 1.097656 0 0.914062 -0.316406 1.09375 -0.953125 L 8.296875 -28.359375 C 8.515625 -28.992188 8.972656 -29.3125 9.671875 -29.3125 L 15.734375 -29.3125 C 16.492188 -29.3125 16.945312 -28.992188 17.09375 -28.359375 L 24.296875 -0.953125 C 24.484375 -0.316406 24.300781 0 23.75 0 L 19.375 0 C 19.039062 0 18.8125 -0.0664062 18.6875 -0.203125 C 18.570312 -0.335938 18.484375 -0.585938 18.421875 -0.953125 L 17.140625 -5.96875 L 8.25 -5.96875 L 6.96875 -0.953125 C 6.914062 -0.585938 6.816406 -0.335938 6.671875 -0.203125 C 6.535156 -0.0664062 6.316406 0 6.015625 0 Z M 12.625 -23.796875 L 9.34375 -10.625 L 16.09375 -10.625 L 12.8125 -23.796875 Z M 12.625 -23.796875 "/></g></g></g><g fill="#2db9f0" fill-opacity="1"><g transform="translate(49.846271, 42.693664)"><g><path d="M 8.984375 -28.359375 L 8.984375 -0.953125 C 8.984375 -0.316406 8.664062 0 8.03125 0 L 4.15625 0 C 3.507812 0 3.1875 -0.316406 3.1875 -0.953125 L 3.1875 -28.359375 C 3.1875 -28.992188 3.507812 -29.3125 4.15625 -29.3125 L 8.03125 -29.3125 C 8.664062 -29.3125 8.984375 -28.992188 8.984375 -28.359375 Z M 8.984375 -28.359375 "/></g></g></g><g fill="#2db9f0" fill-opacity="1"><g transform="translate(62.0166, 42.693664)"><g><path d="M 18.828125 0 L 3.921875 0 C 3.285156 0 2.96875 -0.316406 2.96875 -0.953125 L 2.96875 -28.359375 C 2.96875 -28.992188 3.285156 -29.3125 3.921875 -29.3125 L 18.828125 -29.3125 C 19.429688 -29.3125 19.734375 -28.992188 19.734375 -28.359375 L 19.734375 -25.265625 C 19.734375 -24.617188 19.429688 -24.296875 18.828125 -24.296875 L 9.296875 -24.296875 C 8.929688 -24.296875 8.75 -24.128906 8.75 -23.796875 L 8.75 -17.875 C 8.75 -17.539062 8.929688 -17.375 9.296875 -17.375 L 17.09375 -17.375 C 17.738281 -17.375 18.0625 -17.050781 18.0625 -16.40625 L 18.0625 -13.3125 C 18.0625 -12.675781 17.738281 -12.359375 17.09375 -12.359375 L 9.296875 -12.359375 C 8.929688 -12.359375 8.75 -12.191406 8.75 -11.859375 L 8.75 -5.515625 C 8.75 -5.179688 8.929688 -5.015625 9.296875 -5.015625 L 18.828125 -5.015625 C 19.429688 -5.015625 19.734375 -4.695312 19.734375 -4.0625 L 19.734375 -0.953125 C 19.734375 -0.316406 19.429688 0 18.828125 0 Z M 18.828125 0 "/></g></g></g><g fill="#2db9f0" fill-opacity="1"><g transform="translate(83.850278, 42.693664)"><g/></g></g><g fill="#2db9f0" fill-opacity="1"><g transform="translate(93.878268, 42.693664)"><g><path d="M 9.25 -5.015625 L 14.21875 -5.015625 C 15.195312 -5.015625 15.890625 -5.21875 16.296875 -5.625 C 16.710938 -6.039062 16.921875 -6.734375 16.921875 -7.703125 L 16.921875 -21.609375 C 16.921875 -22.585938 16.710938 -23.28125 16.296875 -23.6875 C 15.890625 -24.09375 15.195312 -24.296875 14.21875 -24.296875 L 9.25 -24.296875 C 8.914062 -24.296875 8.75 -24.128906 8.75 -23.796875 L 8.75 -5.515625 C 8.75 -5.179688 8.914062 -5.015625 9.25 -5.015625 Z M 2.96875 -0.953125 L 2.96875 -28.359375 C 2.96875 -28.992188 3.285156 -29.3125 3.921875 -29.3125 L 15.1875 -29.3125 C 17.550781 -29.3125 19.394531 -28.664062 20.71875 -27.375 C 22.039062 -26.082031 22.703125 -24.253906 22.703125 -21.890625 L 22.703125 -7.4375 C 22.703125 -5.0625 22.039062 -3.226562 20.71875 -1.9375 C 19.394531 -0.644531 17.550781 0 15.1875 0 L 3.921875 0 C 3.285156 0 2.96875 -0.316406 2.96875 -0.953125 Z M 2.96875 -0.953125 "/></g></g></g><g fill="#2db9f0" fill-opacity="1"><g transform="translate(119.084989, 42.693664)"><g><path d="M 13.71875 0 L 9.84375 0 C 9.207031 0 8.890625 -0.316406 8.890625 -0.953125 L 8.890625 -10.71875 L 0.546875 -28.3125 C 0.421875 -28.582031 0.425781 -28.816406 0.5625 -29.015625 C 0.707031 -29.210938 0.914062 -29.3125 1.1875 -29.3125 L 6.015625 -29.3125 C 6.503906 -29.3125 6.867188 -28.992188 7.109375 -28.359375 L 11.671875 -17.28125 L 11.984375 -17.28125 L 16.453125 -28.359375 C 16.671875 -28.992188 17.035156 -29.3125 17.546875 -29.3125 L 22.390625 -29.3125 C 22.691406 -29.3125 22.910156 -29.21875 23.046875 -29.03125 C 23.179688 -28.851562 23.175781 -28.613281 23.03125 -28.3125 L 14.6875 -10.71875 L 14.6875 -0.953125 C 14.6875 -0.316406 14.363281 0 13.71875 0 Z M 13.71875 0 "/></g></g></g><g fill="#2db9f0" fill-opacity="1"><g transform="translate(142.650764, 42.693664)"><g><path d="M 6.015625 0 L 1.640625 0 C 1.097656 0 0.914062 -0.316406 1.09375 -0.953125 L 8.296875 -28.359375 C 8.515625 -28.992188 8.972656 -29.3125 9.671875 -29.3125 L 15.734375 -29.3125 C 16.492188 -29.3125 16.945312 -28.992188 17.09375 -28.359375 L 24.296875 -0.953125 C 24.484375 -0.316406 24.300781 0 23.75 0 L 19.375 0 C 19.039062 0 18.8125 -0.0664062 18.6875 -0.203125 C 18.570312 -0.335938 18.484375 -0.585938 18.421875 -0.953125 L 17.140625 -5.96875 L 8.25 -5.96875 L 6.96875 -0.953125 C 6.914062 -0.585938 6.816406 -0.335938 6.671875 -0.203125 C 6.535156 -0.0664062 6.316406 0 6.015625 0 Z M 12.625 -23.796875 L 9.34375 -10.625 L 16.09375 -10.625 L 12.8125 -23.796875 Z M 12.625 -23.796875 "/></g></g></g><g fill="#2db9f0" fill-opacity="1"><g transform="translate(168.03982, 42.693664)"><g><path d="M 18.921875 0 L 3.921875 0 C 3.285156 0 2.96875 -0.316406 2.96875 -0.953125 L 2.96875 -28.359375 C 2.96875 -28.992188 3.285156 -29.3125 3.921875 -29.3125 L 7.796875 -29.3125 C 8.429688 -29.3125 8.75 -28.992188 8.75 -28.359375 L 8.75 -5.5625 C 8.75 -5.226562 8.929688 -5.0625 9.296875 -5.0625 L 18.921875 -5.0625 C 19.523438 -5.0625 19.828125 -4.726562 19.828125 -4.0625 L 19.828125 -0.953125 C 19.828125 -0.316406 19.523438 0 18.921875 0 Z M 18.921875 0 "/></g></g></g><g fill="#2db9f0" fill-opacity="1"><g transform="translate(188.506042, 42.693664)"><g><path d="M 8.984375 -28.359375 L 8.984375 -0.953125 C 8.984375 -0.316406 8.664062 0 8.03125 0 L 4.15625 0 C 3.507812 0 3.1875 -0.316406 3.1875 -0.953125 L 3.1875 -28.359375 C 3.1875 -28.992188 3.507812 -29.3125 4.15625 -29.3125 L 8.03125 -29.3125 C 8.664062 -29.3125 8.984375 -28.992188 8.984375 -28.359375 Z M 8.984375 -28.359375 "/></g></g></g></g></g><g fill="#22344e" fill-opacity="1"><g transform="translate(117.251716, 256.928186)"><g><path d="M 0.140625 -6.125 L 1.453125 -6.125 L 2.515625 -1.078125 L 2.921875 -1.078125 L 3.984375 -6.125 L 5.28125 -6.125 L 3.859375 0 L 1.5625 0 Z M 0.140625 -6.125 "/></g></g></g><g fill="#22344e" fill-opacity="1"><g transform="translate(125.783755, 256.928186)"><g><path d="M 2.9375 0.109375 C 2.3125 0.109375 1.8125 0 1.4375 -0.21875 C 1.070312 -0.445312 0.804688 -0.789062 0.640625 -1.25 C 0.472656 -1.707031 0.390625 -2.300781 0.390625 -3.03125 C 0.390625 -3.769531 0.472656 -4.367188 0.640625 -4.828125 C 0.804688 -5.296875 1.070312 -5.644531 1.4375 -5.875 C 1.8125 -6.113281 2.3125 -6.234375 2.9375 -6.234375 C 3.550781 -6.234375 4.046875 -6.113281 4.421875 -5.875 C 4.796875 -5.644531 5.0625 -5.296875 5.21875 -4.828125 C 5.382812 -4.367188 5.46875 -3.769531 5.46875 -3.03125 C 5.46875 -2.3125 5.390625 -1.722656 5.234375 -1.265625 C 5.078125 -0.804688 4.8125 -0.460938 4.4375 -0.234375 C 4.0625 -0.00390625 3.5625 0.109375 2.9375 0.109375 Z M 2.9375 -0.96875 C 3.257812 -0.96875 3.507812 -1.035156 3.6875 -1.171875 C 3.875 -1.304688 4.003906 -1.519531 4.078125 -1.8125 C 4.148438 -2.113281 4.1875 -2.519531 4.1875 -3.03125 C 4.1875 -3.539062 4.144531 -3.945312 4.0625 -4.25 C 3.988281 -4.550781 3.859375 -4.773438 3.671875 -4.921875 C 3.492188 -5.066406 3.25 -5.140625 2.9375 -5.140625 C 2.613281 -5.140625 2.359375 -5.066406 2.171875 -4.921875 C 1.992188 -4.773438 1.863281 -4.550781 1.78125 -4.25 C 1.707031 -3.945312 1.671875 -3.539062 1.671875 -3.03125 C 1.671875 -2.5625 1.703125 -2.175781 1.765625 -1.875 C 1.835938 -1.582031 1.960938 -1.359375 2.140625 -1.203125 C 2.328125 -1.046875 2.59375 -0.96875 2.9375 -0.96875 Z M 2.9375 -0.96875 "/></g></g></g><g fill="#22344e" fill-opacity="1"><g transform="translate(134.756792, 256.928186)"><g><path d="M 1.75 -5.015625 L 0.109375 -5.015625 L 0.109375 -6.125 L 4.609375 -6.125 L 4.609375 -5.015625 L 3 -5.015625 L 3 0 L 1.75 0 Z M 1.75 -5.015625 "/></g></g></g><g fill="#22344e" fill-opacity="1"><g transform="translate(142.595822, 256.928186)"><g><path d="M 0.671875 -6.125 L 3.046875 -6.125 C 4.484375 -6.125 5.203125 -5.453125 5.203125 -4.109375 C 5.203125 -3.304688 4.898438 -2.71875 4.296875 -2.34375 L 5.171875 0 L 3.8125 0 L 3.109375 -2.046875 L 1.90625 -2.046875 L 1.90625 0 L 0.671875 0 Z M 3.0625 -3.109375 C 3.34375 -3.109375 3.554688 -3.195312 3.703125 -3.375 C 3.859375 -3.550781 3.9375 -3.789062 3.9375 -4.09375 C 3.9375 -4.394531 3.859375 -4.628906 3.703125 -4.796875 C 3.546875 -4.972656 3.328125 -5.0625 3.046875 -5.0625 L 1.90625 -5.0625 L 1.90625 -3.109375 Z M 3.0625 -3.109375 "/></g></g></g><g fill="#22344e" fill-opacity="1"><g transform="translate(151.280858, 256.928186)"><g><path d="M 1.90625 -5.046875 L 1.90625 -3.609375 L 4.09375 -3.609375 L 4.09375 -2.546875 L 1.90625 -2.546875 L 1.90625 -1.078125 L 4.625 -1.078125 L 4.625 0 L 0.671875 0 L 0.671875 -6.125 L 4.625 -6.125 L 4.625 -5.046875 Z M 1.90625 -5.046875 "/></g></g></g><g fill="#22344e" fill-opacity="1"><g transform="translate(159.371887, 256.928186)"><g/></g></g><g fill="#22344e" fill-opacity="1"><g transform="translate(164.456897, 256.928186)"><g><path d="M 0.671875 -6.125 L 2.921875 -6.125 C 4.367188 -6.125 5.09375 -5.414062 5.09375 -4 C 5.09375 -3.28125 4.90625 -2.726562 4.53125 -2.34375 C 4.164062 -1.96875 3.628906 -1.78125 2.921875 -1.78125 L 1.90625 -1.78125 L 1.90625 0 L 0.671875 0 Z M 2.90625 -2.84375 C 3.519531 -2.84375 3.828125 -3.226562 3.828125 -4 C 3.828125 -4.363281 3.753906 -4.628906 3.609375 -4.796875 C 3.460938 -4.972656 3.226562 -5.0625 2.90625 -5.0625 L 1.90625 -5.0625 L 1.90625 -2.84375 Z M 2.90625 -2.84375 "/></g></g></g><g fill="#22344e" fill-opacity="1"><g transform="translate(172.862937, 256.928186)"><g><path d="M 3.78125 -1.109375 L 1.640625 -1.109375 L 1.390625 0 L 0.15625 0 L 1.53125 -6.125 L 3.890625 -6.125 L 5.265625 0 L 4.015625 0 Z M 2.921875 -5.09375 L 2.5 -5.09375 L 1.875 -2.1875 L 3.546875 -2.1875 Z M 2.921875 -5.09375 "/></g></g></g><g fill="#22344e" fill-opacity="1"><g transform="translate(181.38597, 256.928186)"><g><path d="M 0.671875 -6.125 L 1.90625 -6.125 L 1.90625 0 L 0.671875 0 Z M 0.671875 -6.125 "/></g></g></g><g fill="#22344e" fill-opacity="1"><g transform="translate(187.064985, 256.928186)"><g><path d="M 1.90625 -5.046875 L 1.90625 -3.609375 L 4.09375 -3.609375 L 4.09375 -2.546875 L 1.90625 -2.546875 L 1.90625 -1.078125 L 4.625 -1.078125 L 4.625 0 L 0.671875 0 L 0.671875 -6.125 L 4.625 -6.125 L 4.625 -5.046875 Z M 1.90625 -5.046875 "/></g></g></g><g fill="#22344e" fill-opacity="1"><g transform="translate(195.156015, 256.928186)"><g><path d="M 0.625 -1.234375 L 1.96875 -1.234375 L 1.15625 1.109375 L 0.1875 1.109375 Z M 0.625 -1.234375 "/></g></g></g><g fill="#22344e" fill-opacity="1"><g transform="translate(200.62803, 256.928186)"><g/></g></g><g fill="#22344e" fill-opacity="1"><g transform="translate(205.71304, 256.928186)"><g><path d="M 7.0625 -6.125 L 7.0625 0 L 5.8125 0 L 5.8125 -4.734375 L 5.671875 -4.734375 L 4.484375 -0.265625 L 3.234375 -0.265625 L 2.046875 -4.734375 L 1.90625 -4.734375 L 1.90625 0 L 0.671875 0 L 0.671875 -6.125 L 2.78125 -6.125 L 3.859375 -1.671875 L 4.9375 -6.125 Z M 7.0625 -6.125 "/></g></g></g><g fill="#22344e" fill-opacity="1"><g transform="translate(216.540089, 256.928186)"><g><path d="M 3.78125 -1.109375 L 1.640625 -1.109375 L 1.390625 0 L 0.15625 0 L 1.53125 -6.125 L 3.890625 -6.125 L 5.265625 0 L 4.015625 0 Z M 2.921875 -5.09375 L 2.5 -5.09375 L 1.875 -2.1875 L 3.546875 -2.1875 Z M 2.921875 -5.09375 "/></g></g></g><g fill="#22344e" fill-opacity="1"><g transform="translate(225.063121, 256.928186)"><g/></g></g><g fill="#22344e" fill-opacity="1"><g transform="translate(230.148132, 256.928186)"><g><path d="M 0.671875 -6.125 L 2.921875 -6.125 C 4.367188 -6.125 5.09375 -5.414062 5.09375 -4 C 5.09375 -3.28125 4.90625 -2.726562 4.53125 -2.34375 C 4.164062 -1.96875 3.628906 -1.78125 2.921875 -1.78125 L 1.90625 -1.78125 L 1.90625 0 L 0.671875 0 Z M 2.90625 -2.84375 C 3.519531 -2.84375 3.828125 -3.226562 3.828125 -4 C 3.828125 -4.363281 3.753906 -4.628906 3.609375 -4.796875 C 3.460938 -4.972656 3.226562 -5.0625 2.90625 -5.0625 L 1.90625 -5.0625 L 1.90625 -2.84375 Z M 2.90625 -2.84375 "/></g></g></g><g fill="#22344e" fill-opacity="1"><g transform="translate(238.554171, 256.928186)"><g><path d="M 3.78125 -1.109375 L 1.640625 -1.109375 L 1.390625 0 L 0.15625 0 L 1.53125 -6.125 L 3.890625 -6.125 L 5.265625 0 L 4.015625 0 Z M 2.921875 -5.09375 L 2.5 -5.09375 L 1.875 -2.1875 L 3.546875 -2.1875 Z M 2.921875 -5.09375 "/></g></g></g><g fill="#22344e" fill-opacity="1"><g transform="translate(247.077204, 256.928186)"><g><path d="M 0.671875 -6.125 L 1.90625 -6.125 L 1.90625 0 L 0.671875 0 Z M 0.671875 -6.125 "/></g></g></g><g fill="#22344e" fill-opacity="1"><g transform="translate(252.75622, 256.928186)"><g><path d="M 1.90625 -5.046875 L 1.90625 -3.609375 L 4.09375 -3.609375 L 4.09375 -2.546875 L 1.90625 -2.546875 L 1.90625 -1.078125 L 4.625 -1.078125 L 4.625 0 L 0.671875 0 L 0.671875 -6.125 L 4.625 -6.125 L 4.625 -5.046875 Z M 1.90625 -5.046875 "/></g></g></g></svg>